<?xml version="1.0" encoding="UTF-8"?>
<svg width="30px" height="30px" viewBox="0 0 30 30" version="1.1" xmlns="http://www.w3.org/2000/svg" xmlns:xlink="http://www.w3.org/1999/xlink">
    <!-- Generator: Sketch 53.2 (72643) - https://sketchapp.com -->
    <title>icon/close/</title>
    <desc>Created with Sketch.</desc>
    <defs>
        <path d="M15.9773624,14.0226376 L21.0226376,14.0226376 C21.56242,14.0226376 22,14.4602177 22,15 C22,15.5397823 21.56242,15.9773624 21.0226376,15.9773624 L15.9773624,15.9773624 L15.9773624,21.0226376 C15.9773624,21.56242 15.5397823,22 15,22 C14.4602177,22 14.0226376,21.56242 14.0226376,21.0226376 L14.0226376,15.9773624 L8.97736239,15.9773624 C8.43758005,15.9773624 8,15.5397823 8,15 C8,14.4602177 8.43758005,14.0226376 8.97736239,14.0226376 L14.0226376,14.0226376 L14.0226376,8.97736239 C14.0226376,8.43758005 14.4602177,8 15,8 C15.5397823,8 15.9773624,8.43758005 15.9773624,8.97736239 L15.9773624,14.0226376 Z" id="path-1"></path>
    </defs>
    <g id="icon/close/" stroke="none" stroke-width="1" fill="none" fill-rule="evenodd">
        <mask id="mask-2" fill="white">
            <use xlink:href="#path-1"></use>
        </mask>
        <use id="close" fill="#FFFFFF" fill-rule="nonzero" transform="translate(15.000000, 15.000000) rotate(-315.000000) translate(-15.000000, -15.000000) " xlink:href="#path-1"></use>
    </g>
</svg>